<svg width="96" height="96" viewBox="0 0 96 96" fill="none" xmlns="http://www.w3.org/2000/svg">
<rect width="96" height="96" fill="#3252FF"/>
<path d="M18.3157 40.0479H3.91125V45.1815H18.3157V40.0479Z" fill="white"/>
<path d="M92.3864 40.0479H77.9819V45.1815H92.3864V40.0479Z" fill="white"/>
<path d="M48.0946 82.4889C25.8911 82.4889 7.84265 64.3403 7.84265 42.0136H15.6333C15.6333 60.0055 30.2019 74.655 48.0946 74.655C65.9872 74.655 80.5558 60.0055 80.5558 42.0136H88.3465C88.3465 64.3403 70.2981 82.4889 48.0946 82.4889Z" fill="white"/>
<path d="M3.91125 38.7825V13.5111H11.7408L15.3651 29.7986L18.9894 13.5111H26.8189V38.7825H22.0562V19.1814L17.3167 38.7825H13.4135L8.67401 19.1814V38.7825H3.91125Z" fill="white"/>
<path d="M32.5374 13.5111H45.2922V18.2947H37.9274V23.1483H45.2922V27.9319H37.9274V33.9989H45.2922V38.7825H32.5374V13.5111V13.5111Z" fill="white"/>
<path d="M51.0106 38.7825V13.5111H58.8401L62.4645 29.7986L66.0888 13.5111H73.9183V38.7825H69.1788V19.1814L64.4393 38.7825H60.5129L55.7734 19.1814V38.7825H51.0106Z" fill="white"/>
<path d="M79.6367 13.5111H92.3916V18.2947H85.0268V23.1483H92.3916V27.9319H85.0268V33.9989H92.3916V38.7825H79.6367V13.5111Z" fill="white"/>
<path d="M24.3723 51.755C24.3723 49.3238 25.3295 47.7174 27.2437 47.7174C29.1798 47.7174 30.1152 49.3238 30.1152 51.7767C30.1152 54.2296 29.158 55.836 27.2437 55.836C25.3077 55.836 24.3723 54.2296 24.3723 51.755ZM26.0256 51.7767C26.0256 53.6435 26.4389 54.3381 27.2437 54.3381C28.0704 54.3381 28.4619 53.6435 28.4619 51.755C28.4619 49.8664 28.0704 49.1718 27.2437 49.1718C26.4171 49.1935 26.0256 49.8881 26.0256 51.7767Z" fill="white"/>
<path d="M30.9852 47.8694H34.5963V49.3455H32.595V50.8216H34.5963V52.2977H32.595V55.684H30.9852V47.8694V47.8694Z" fill="white"/>
<path d="M38.0332 49.3455H36.728V47.8694H40.9699V49.3455H39.6647V55.684H38.055V49.3455H38.0332Z" fill="white"/>
<path d="M41.7532 55.684V47.8694H43.3629V50.8433H45.2772V47.8694H46.8869V55.684H45.2772V52.3194H43.3629V55.684H41.7532Z" fill="white"/>
<path d="M48.192 47.8694H51.9988V49.3455H49.8018V50.8433H51.9988V52.3194H49.8018V54.2079H51.9988V55.684H48.192V47.8694Z" fill="white"/>
<path d="M56.1321 47.8694H58.3944C59.5473 47.8694 60.3087 48.3035 60.809 49.0199C61.3093 49.7362 61.5921 50.713 61.5921 51.7767C61.5921 53.904 60.5262 55.684 58.4379 55.684H56.1321V47.8694ZM57.7418 54.2079H58.4379C59.7431 54.2079 59.9389 52.6016 59.9389 51.7767C59.9389 51.0387 59.8301 50.4309 59.5691 49.9967C59.3298 49.5843 58.9818 49.3455 58.3727 49.3455H57.7201V54.2079H57.7418Z" fill="white"/>
<path d="M63.0496 55.684H61.4181L63.5499 47.8694H65.0291L67.2479 55.684H65.6382L65.2249 54.1862H63.4194L63.0496 55.684ZM64.333 50.1487L63.8327 52.7101H64.8333L64.333 50.1487Z" fill="white"/>
<path d="M68.5096 52.5582L66.6171 47.8694H68.2703L69.3145 51.0604L70.3369 47.8694H71.9901L70.0976 52.5582V55.684H68.4878V52.5582H68.5096Z" fill="white"/>
</svg>
