<svg width="20" height="19" fill="none" xmlns="http://www.w3.org/2000/svg"><path d="M18 4h-2.18c.11-.31.18-.65.18-1a2.996 2.996 0 00-5.5-1.65l-.5.67-.5-.68C8.96.54 8.05 0 7 0 5.34 0 4 1.34 4 3c0 .35.07.69.18 1H2C.89 4 .01 4.89.01 6L0 17c0 1.11.89 2 2 2h16c1.11 0 2-.89 2-2V6c0-1.11-.89-2-2-2zm-5-2c.55 0 1 .45 1 1s-.45 1-1 1-1-.45-1-1 .45-1 1-1zM7 2c.55 0 1 .45 1 1s-.45 1-1 1-1-.45-1-1 .45-1 1-1zm11 15H2v-2h16v2zm0-5H2V6h5.08L5 8.83 6.62 10 9 6.76l1-1.36 1 1.36L13.38 10 15 8.83 12.92 6H18v6z" fill="#2979FF"/></svg>