<svg width="512" height="512" viewBox="0 0 512 512" fill="none" xmlns="http://www.w3.org/2000/svg">
<path d="M103.507 215.42H30V241.617H103.507V215.42Z" fill="white"/>
<path d="M481.497 215.42H407.99V241.617H481.497V215.42Z" fill="white"/>
<path d="M255.471 432C142.165 432 50.062 339.386 50.062 225.451H89.8187C89.8187 317.265 164.164 392.023 255.471 392.023C346.779 392.023 421.124 317.265 421.124 225.451H460.881C460.881 339.386 368.778 432 255.471 432Z" fill="white"/>
<path d="M30 208.962V80H69.9547L88.45 163.117L106.945 80H146.9V208.962H122.595V108.936L98.409 208.962H78.491L54.3048 108.936V208.962H30Z" fill="white"/>
<path d="M176.082 80H241.171V104.411H203.587V129.179H241.171V153.59H203.587V184.551H241.171V208.962H176.082V80Z" fill="white"/>
<path d="M270.353 208.962V80H310.307L328.803 163.117L347.298 80H387.253V208.962H363.066V108.936L338.88 208.962H318.844L294.657 108.936V208.962H270.353Z" fill="white"/>
<path d="M416.434 80H481.523V104.411H443.939V129.179H481.523V153.59H443.939V184.551H481.523V208.962H416.434V80Z" fill="white"/>
<path d="M142.873 275.17C142.873 263.627 147.417 256 156.506 256C165.698 256 170.139 263.627 170.139 275.273C170.139 286.919 165.595 294.545 156.506 294.545C147.314 294.545 142.873 286.919 142.873 275.17ZM150.722 275.273C150.722 284.136 152.685 287.434 156.506 287.434C160.431 287.434 162.29 284.136 162.29 275.17C162.29 266.203 160.431 262.905 156.506 262.905C152.581 263.008 150.722 266.306 150.722 275.273Z" fill="white"/>
<path d="M174.271 256.721H191.415V263.73H181.913V270.738H191.415V277.746H181.913V293.824H174.271V256.721Z" fill="white"/>
<path d="M207.733 263.73H201.537V256.721H221.676V263.73H215.479V293.824H207.837V263.73H207.733Z" fill="white"/>
<path d="M225.394 293.824V256.721H233.037V270.841H242.125V256.721H249.768V293.824H242.125V277.849H233.037V293.824H225.394Z" fill="white"/>
<path d="M255.965 256.721H274.039V263.73H263.608V270.841H274.039V277.849H263.608V286.816H274.039V293.824H255.965V256.721Z" fill="white"/>
<path d="M293.663 256.721H304.404C309.878 256.721 313.492 258.783 315.868 262.184C318.243 265.585 319.586 270.223 319.586 275.273C319.586 285.373 314.525 293.824 304.61 293.824H293.663V256.721ZM301.305 286.816H304.61C310.807 286.816 311.737 279.189 311.737 275.273C311.737 271.769 311.22 268.883 309.981 266.822C308.845 264.863 307.192 263.73 304.3 263.73H301.202V286.816H301.305Z" fill="white"/>
<path d="M326.506 293.824H318.76L328.881 256.721H335.904L346.439 293.824H338.796L336.834 286.713H328.262L326.506 293.824ZM332.599 267.543L330.224 279.704H334.975L332.599 267.543Z" fill="white"/>
<path d="M352.429 278.983L343.444 256.721H351.293L356.251 271.872L361.105 256.721H368.954L359.969 278.983V293.824H352.326V278.983H352.429Z" fill="white"/>
</svg>
