<svg width="733" height="196" viewBox="0 0 733 196" fill="none" xmlns="http://www.w3.org/2000/svg">
<path d="M44.6671 192L43.1431 51.284L83.7831 192H115.533L156.173 51.284L154.649 192H198.845V4.04H134.329L100.039 125.198L64.7331 4.04H0.471125V192H44.6671ZM225.263 100.306C225.263 148.566 264.887 195.556 324.069 195.556C382.489 195.556 423.637 150.344 423.637 98.02C423.637 45.696 382.235 0.483998 324.323 0.483998C272.507 0.483998 225.263 38.584 225.263 100.052V100.306ZM273.269 97.512C273.269 71.096 291.303 42.648 324.577 42.648C359.121 42.648 375.631 73.89 375.631 98.274C375.631 122.404 359.121 153.392 325.085 153.392C292.827 153.392 273.269 126.468 273.269 97.766V97.512ZM464.856 192H512.862V46.204H549.692V4.04H427.772V46.204H464.856V192ZM569.502 192H635.288C706.662 192 732.062 148.82 732.062 97.512C732.062 76.938 727.744 56.872 714.79 39.092C690.406 4.04 652.814 4.04 631.732 4.04H569.502V192ZM617.508 46.204H638.336C659.672 46.204 669.324 55.094 674.912 63.476C681.77 74.144 684.056 87.606 684.056 98.274C684.056 124.944 673.896 149.836 638.082 149.836H617.508V46.204Z" fill="white"/>
</svg>
