<svg width="18" height="18" viewBox="0 0 18 18" fill="none" xmlns="http://www.w3.org/2000/svg">
<path d="M6.84595 0.333328C8.56985 0.333328 10.2232 1.01815 11.4421 2.23713C12.6611 3.45612 13.3459 5.10942 13.3459 6.83333C13.3459 8.44333 12.7559 9.92333 11.7859 11.0633L12.0559 11.3333H12.8459L17.8459 16.3333L16.3459 17.8333L11.3459 12.8333V12.0433L11.0759 11.7733C9.93595 12.7433 8.45595 13.3333 6.84595 13.3333C5.12204 13.3333 3.46874 12.6485 2.24975 11.4295C1.03077 10.2105 0.345947 8.55724 0.345947 6.83333C0.345947 5.10942 1.03077 3.45612 2.24975 2.23713C3.46874 1.01815 5.12204 0.333328 6.84595 0.333328ZM6.84595 2.33333C4.34595 2.33333 2.34595 4.33333 2.34595 6.83333C2.34595 9.33333 4.34595 11.3333 6.84595 11.3333C9.34595 11.3333 11.3459 9.33333 11.3459 6.83333C11.3459 4.33333 9.34595 2.33333 6.84595 2.33333Z" fill="#787885"/>
</svg>
