<svg width="60" height="57" viewBox="0 0 60 57" fill="none" xmlns="http://www.w3.org/2000/svg">
<path d="M32.23 54.3021H33.751L37.378 44.6821H35.792L32.997 52.4301L30.215 44.6821H28.629L32.23 54.3021ZM37.4221 49.5571C37.4221 52.2091 39.5411 54.4841 42.4401 54.4841C45.3261 54.4841 47.4971 52.2611 47.4971 49.4921C47.4971 46.7231 45.3261 44.5001 42.4531 44.5001C39.7491 44.5001 37.4221 46.5151 37.4221 49.5441V49.5571ZM38.9431 49.4791C38.9431 47.5421 40.3731 45.8521 42.4661 45.8521C44.5721 45.8521 45.9631 47.6201 45.9631 49.5051C45.9631 51.3771 44.5721 53.1321 42.4791 53.1321C40.4251 53.1321 38.9431 51.4941 38.9431 49.4921V49.4791ZM49.7411 54.3021H51.2751V46.0341H53.4851V44.6821H47.5311V46.0341H49.7411V54.3021ZM54.5074 54.3021H59.8894V52.9501H56.0414V50.1031H59.8374V48.7641H56.0414V46.0341H59.8894V44.6821H54.5074V54.3021Z" fill="#0CE03B"/>
<path d="M12.2435 16.4322L10.6088 14.7974C10.2315 14.4202 9.61421 14.4202 9.23696 14.7974C8.85971 15.1747 8.85971 15.792 9.23696 16.1692L10.8717 17.804C11.249 18.1812 11.8663 18.1812 12.2435 17.804C12.6208 17.4267 12.6208 16.8094 12.2435 16.4322Z" fill="#0CE03B"/>
<path d="M18.3374 22.5253L14.6335 18.8214C14.2562 18.4441 13.6389 18.4441 13.2617 18.8214C12.8844 19.1986 12.8844 19.816 13.2617 20.1932L16.9656 23.8971C17.3428 24.2744 17.9601 24.2744 18.3374 23.8971C18.7146 23.5199 18.7146 22.9025 18.3374 22.5253Z" fill="#0CE03B"/>
<path d="M12.6442 12.7624L18.0629 18.1811C18.4401 18.5584 19.0574 18.5584 19.4347 18.1811C19.8119 17.8039 19.8119 17.1865 19.4347 16.8093L14.016 11.3906C13.6388 11.0134 13.0214 11.0134 12.6442 11.3906C12.2669 11.7679 12.2555 12.3737 12.6442 12.7624Z" fill="#0CE03B"/>
<path d="M23.3431 20.7189L21.7884 19.1642C21.4112 18.7869 20.7938 18.7869 20.4166 19.1642C20.0393 19.5414 20.0393 20.1587 20.4166 20.536L21.9713 22.0907C22.3486 22.468 22.9659 22.468 23.3431 22.0907C23.7204 21.7135 23.7204 21.0962 23.3431 20.7189Z" fill="#0CE03B"/>
<path d="M26.8088 24.1827L25.7685 23.1424C25.3913 22.7652 24.774 22.7652 24.3967 23.1424C24.0195 23.5197 24.0195 24.137 24.3967 24.5142L25.437 25.5545C25.8143 25.9318 26.4316 25.9318 26.8088 25.5545C27.1861 25.1773 27.1975 24.5714 26.8088 24.1827Z" fill="#0CE03B"/>
<path d="M16.0619 9.34408L17.2509 10.533C17.6281 10.9102 18.2454 10.9102 18.6227 10.533C18.9999 10.1557 18.9999 9.53843 18.6227 9.16118L17.4338 7.97227C17.0565 7.59502 16.4392 7.59502 16.0619 7.97227C15.6847 8.34952 15.6733 8.9554 16.0619 9.34408Z" fill="#0CE03B"/>
<path d="M19.5965 12.8767L21.8828 15.1631C22.2601 15.5403 22.8774 15.5403 23.2546 15.1631C23.6319 14.7858 23.6319 14.1685 23.2546 13.7912L20.9683 11.5049C20.591 11.1276 19.9737 11.1276 19.5965 11.5049C19.2192 11.8821 19.2192 12.4995 19.5965 12.8767Z" fill="#0CE03B"/>
<path d="M24.4062 17.6895L28.8532 22.1365C29.2304 22.5137 29.8477 22.5137 30.225 22.1365C30.6022 21.7592 30.6022 21.1419 30.225 20.7647L25.778 16.3177C25.4007 15.9404 24.7834 15.9404 24.4062 16.3177C24.0289 16.6949 24.0289 17.3123 24.4062 17.6895Z" fill="#0CE03B"/>
<path d="M1.24625 19.4044L11.1348 29.2929L9.31711 31.1105C8.1282 32.2995 7.80811 33.6941 8.36827 35.2374C8.71122 36.1977 8.65407 37.2837 8.17393 38.2211C8.00245 38.5527 7.77382 38.8727 7.51088 39.1357L7.14507 38.7699C6.51632 38.1411 5.48745 38.1411 4.8587 38.7699L0.971885 42.6567C0.343135 43.2854 0.343136 44.3143 0.971886 44.943L11.6035 55.5746C12.2322 56.2034 13.2611 56.2034 13.8898 55.5746L17.7881 51.6764C18.4168 51.0476 18.4168 50.0188 17.7881 49.39L17.7195 49.3214L18.1425 48.8985C19.3542 47.6867 20.829 46.8293 22.418 46.4292C22.4751 46.4178 22.5437 46.3949 22.6009 46.3835C24.7158 45.8919 26.2248 44.5201 27.7109 43.0339L31.552 39.1928C32.6495 38.0954 32.6609 36.3006 31.552 35.1917C31.1976 34.8373 30.7632 34.5858 30.3059 34.4715C30.466 33.5798 30.2145 32.6424 29.5286 31.9565C29.0141 31.4421 28.3625 31.1791 27.688 31.1448C27.688 31.0305 27.6652 30.9162 27.6423 30.8019L37.6909 20.7533C38.0681 20.3761 38.0681 19.7587 37.6909 19.3815L19.4571 1.14774C19.0799 0.770493 18.4626 0.77049 18.0853 1.14774L1.22338 18.0097C0.868995 18.4098 0.868997 19.0271 1.24625 19.4044ZM12.7695 53.997L2.5952 43.8227L6.03618 40.3817L16.2105 50.5561L12.7695 53.997ZM25.516 32.0365L23.504 34.0485C23.1268 34.4258 23.1267 35.0431 23.504 35.4203C23.8812 35.7976 24.4986 35.7976 24.8758 35.4203L26.8878 33.4083L26.9335 33.3626C27.2765 33.0197 27.8481 33.0197 28.191 33.3626C28.534 33.7056 28.534 34.2772 28.191 34.6201L26.1219 36.6893C25.7446 37.0665 25.7446 37.6838 26.1219 38.0611C26.4991 38.4383 27.1165 38.4383 27.4937 38.0611L28.9684 36.5864C29.3114 36.2434 29.883 36.2434 30.2259 36.5864C30.5689 36.9293 30.5689 37.5009 30.2259 37.8439L26.3848 41.685C25.0587 43.0111 23.8355 44.1428 22.2008 44.5201C22.1322 44.5429 22.0522 44.5544 21.9836 44.5772C20.0516 45.0688 18.2682 46.0977 16.8164 47.5495L16.3934 47.9725L8.92843 40.5075C9.33998 40.096 9.68293 39.6158 9.95729 39.09C10.6775 37.6838 10.7804 36.0262 10.2317 34.563C9.96873 33.8656 9.95729 33.2369 10.7232 32.4709L12.5409 30.6533L13.6498 31.7622C13.4097 32.1623 13.4897 32.6996 13.8784 33.0197C14.8387 33.797 16.2219 33.717 17.0907 32.8482L21.8578 28.0811C22.155 27.7839 22.6466 27.7725 22.9553 28.0811C23.2639 28.3898 23.2639 28.8699 22.9553 29.1786L20.2231 31.9336C19.8458 32.3109 19.8458 32.9282 20.2231 33.3055C20.6003 33.6827 21.2176 33.6827 21.5949 33.3055L24.2128 30.6876C24.5786 30.3217 25.1845 30.3103 25.5617 30.6876C25.939 31.0648 25.8818 31.6707 25.516 32.0365ZM18.7941 3.22834L35.6675 20.1017L26.6592 29.11C26.1905 28.7327 25.6417 28.527 25.0702 28.4812C25.0244 27.841 24.7729 27.2009 24.2814 26.7093C23.2182 25.6461 21.5034 25.6461 20.4403 26.7093L15.8675 31.282L3.30398 18.7185L18.7941 3.22834Z" fill="#0CE03B"/>
</svg>
